<?xml version="1.0" encoding="UTF-8" standalone="no"?>
<!-- Created with Inkscape (http://www.inkscape.org/) -->

<svg
   xmlns:dc="http://purl.org/dc/elements/1.1/"
   xmlns:cc="http://creativecommons.org/ns#"
   xmlns:rdf="http://www.w3.org/1999/02/22-rdf-syntax-ns#"
   xmlns:svg="http://www.w3.org/2000/svg"
   xmlns="http://www.w3.org/2000/svg"
   xmlns:sodipodi="http://sodipodi.sourceforge.net/DTD/sodipodi-0.dtd"
   xmlns:inkscape="http://www.inkscape.org/namespaces/inkscape"
   width="25.559999"
   height="72"
   id="svg2"
   version="1.1"
   inkscape:version="0.48.3.1 r9886"
   sodipodi:docname="curlyLeftBracket.svg"
   inkscape:export-filename="/home/camden/Documents/EquationEditorRefactored/src/Images/curlyLeftBracketHighlight.png"
   inkscape:export-xdpi="937.5"
   inkscape:export-ydpi="937.5">
  <defs
     id="defs4" />
  <sodipodi:namedview
     id="base"
     pagecolor="#ffffff"
     bordercolor="#666666"
     borderopacity="1.0"
     inkscape:pageopacity="0.0"
     inkscape:pageshadow="2"
     inkscape:zoom="1.979899"
     inkscape:cx="115.53029"
     inkscape:cy="62.935258"
     inkscape:document-units="px"
     inkscape:current-layer="layer1"
     showgrid="false"
     fit-margin-top="0"
     fit-margin-left="0"
     fit-margin-right="0"
     fit-margin-bottom="0"
     inkscape:window-width="959"
     inkscape:window-height="576"
     inkscape:window-x="65"
     inkscape:window-y="24"
     inkscape:window-maximized="1" />
  <metadata
     id="metadata7">
    <rdf:RDF>
      <cc:Work
         rdf:about="">
        <dc:format>image/svg+xml</dc:format>
        <dc:type
           rdf:resource="http://purl.org/dc/dcmitype/StillImage" />
        <dc:title></dc:title>
      </cc:Work>
    </rdf:RDF>
  </metadata>
  <g
     inkscape:label="Layer 1"
     inkscape:groupmode="layer"
     id="layer1"
     transform="translate(-259.46971,-284.07648)">
    <g
       style="font-size:72px;font-style:normal;font-variant:normal;font-weight:normal;font-stretch:normal;line-height:125%;letter-spacing:0px;word-spacing:0px;fill:#000000;fill-opacity:1;stroke:none;font-family:Latin Modern Roman;-inkscape-font-specification:Latin Modern Roman"
       id="text2985"
       transform="matrix(-1,0,0,1,544.49942,0)">
      <path
         d="m 285.02971,355.28448 c 0,-0.72 -0.43201,-0.72 -1.152,-0.792 -5.688,-0.36 -8.35201,-3.60001 -9,-6.192 -0.216,-0.792 -0.216,-0.93601 -0.216,-3.456 l 0,-10.8 c 0,-2.16 0,-5.832 -0.144,-6.552 -0.936,-4.752 -5.54401,-6.624 -8.352,-7.416 8.49599,-2.448 8.496,-7.56 8.496,-9.576 l 0,-12.96 c 0,-5.184 0,-6.768 1.728,-8.568 1.29599,-1.296 2.952,-3.024 7.992,-3.312 0.36,-0.072 0.648,-0.36 0.648,-0.792 0,-0.792 -0.57601,-0.792 -1.44,-0.792 -7.2,0 -13.608,3.672 -13.752,8.856 l 0,13.176 c 0,6.76799 -1e-5,7.92 -1.872,9.936 -1.008,1.008 -2.95201,2.952 -7.488,3.24 -0.504,0 -1.008,0.072 -1.008,0.792 0,0.72 0.432,0.72 1.152,0.792 3.09599,0.216 9.216,1.728 9.216,8.928 l 0,14.256 c 0,4.17599 0,6.624 3.744,9.288 3.09599,2.15999 7.776,2.736 10.008,2.736 0.86399,0 1.44,0 1.44,-0.792"
         style="fill:#000000"
         id="path2990"
         inkscape:connector-curvature="0" />
    </g>
  </g>
</svg>
