<?xml version="1.0" encoding="UTF-8" standalone="no"?>
<!-- Created with Inkscape (http://www.inkscape.org/) -->

<svg
   xmlns:dc="http://purl.org/dc/elements/1.1/"
   xmlns:cc="http://creativecommons.org/ns#"
   xmlns:rdf="http://www.w3.org/1999/02/22-rdf-syntax-ns#"
   xmlns:svg="http://www.w3.org/2000/svg"
   xmlns="http://www.w3.org/2000/svg"
   xmlns:sodipodi="http://sodipodi.sourceforge.net/DTD/sodipodi-0.dtd"
   xmlns:inkscape="http://www.inkscape.org/namespaces/inkscape"
   width="261.55899"
   height="328.28842"
   id="svg3095"
   version="1.1"
   inkscape:version="0.48.3.1 r9886"
   sodipodi:docname="lessThanOrEqualToOperator.svg"
   inkscape:export-filename="/home/camden/Documents/EquationEditorRefactored/src/Images/lessThanOrEqualToOperatorHighlight.png"
   inkscape:export-xdpi="172.04555"
   inkscape:export-ydpi="172.04555">
  <defs
     id="defs3097" />
  <sodipodi:namedview
     id="base"
     pagecolor="#ffffff"
     bordercolor="#666666"
     borderopacity="1.0"
     inkscape:pageopacity="0.0"
     inkscape:pageshadow="2"
     inkscape:zoom="0.7"
     inkscape:cx="-17.806829"
     inkscape:cy="102.66852"
     inkscape:document-units="px"
     inkscape:current-layer="layer1"
     showgrid="false"
     fit-margin-top="0"
     fit-margin-left="0"
     fit-margin-right="0"
     fit-margin-bottom="0"
     inkscape:window-width="959"
     inkscape:window-height="576"
     inkscape:window-x="65"
     inkscape:window-y="24"
     inkscape:window-maximized="1" />
  <metadata
     id="metadata3100">
    <rdf:RDF>
      <cc:Work
         rdf:about="">
        <dc:format>image/svg+xml</dc:format>
        <dc:type
           rdf:resource="http://purl.org/dc/dcmitype/StillImage" />
        <dc:title></dc:title>
      </cc:Work>
    </rdf:RDF>
  </metadata>
  <g
     inkscape:label="Layer 1"
     inkscape:groupmode="layer"
     id="layer1"
     transform="translate(0,-724.07376)">
    <g
       id="g3139"
       style="fill:#000000">
      <g
         style="font-size:428.08346557999999504px;font-style:normal;font-variant:normal;font-weight:normal;font-stretch:normal;line-height:125%;letter-spacing:0px;word-spacing:0px;fill:#000000;fill-opacity:1;stroke:none;font-family:Latin Modern Roman;-inkscape-font-specification:Latin Modern Roman"
         id="text3103">
        <path
           d="m 261.559,963.8005 c 0,-4.70891 -2.99659,-6.84934 -8.13359,-9.41784 L 28.681594,848.21796 253.42541,742.05326 c 5.137,-2.56849 8.13359,-4.70892 8.13359,-9.41783 0,-4.70891 -3.85276,-8.56167 -8.56167,-8.56167 -1.28425,0 -2.14042,0 -7.7055,2.99658 L 8.1335877,838.80013 C 3.4246743,840.94054 1.8920898e-6,843.08097 1.8920898e-6,848.21796 c 0,5.137 3.4246724079102,7.27743 8.1335858079102,9.41784 L 245.29183,969.36558 c 5.56508,2.99659 6.42125,2.99659 7.7055,2.99659 4.70891,0 8.56167,-3.85276 8.56167,-8.56167"
           style="fill:#000000"
           id="path3145" />
      </g>
      <path
         style="fill:#000000;fill-opacity:1;stroke:none"
         d="m 7.875,1036.6122 245.80899,0 c 4.36275,0 7.875,3.5122 7.875,7.875 0,4.3627 -3.51225,7.875 -7.875,7.875 l -245.80899,0 c -4.36275,0 -7.875,-3.5123 -7.875,-7.875 0,-4.3628 3.51225,-7.875 7.875,-7.875 z"
         id="rect3107" />
    </g>
  </g>
</svg>
