<?xml version="1.0" encoding="UTF-8" standalone="no"?>
<!-- Created with Inkscape (http://www.inkscape.org/) -->

<svg
   xmlns:dc="http://purl.org/dc/elements/1.1/"
   xmlns:cc="http://creativecommons.org/ns#"
   xmlns:rdf="http://www.w3.org/1999/02/22-rdf-syntax-ns#"
   xmlns:svg="http://www.w3.org/2000/svg"
   xmlns="http://www.w3.org/2000/svg"
   xmlns:sodipodi="http://sodipodi.sourceforge.net/DTD/sodipodi-0.dtd"
   xmlns:inkscape="http://www.inkscape.org/namespaces/inkscape"
   width="53.661411"
   height="294.70718"
   id="svg2"
   version="1.1"
   inkscape:version="0.48.4 r9939"
   sodipodi:docname="parenthesesLeftBracket.svg"
   inkscape:export-filename="C:\Users\camdenre\Documents\EquationEditorRefactored\src\Images\parenthesesLeftBracketHighlight.png"
   inkscape:export-xdpi="229.03191"
   inkscape:export-ydpi="229.03191">
  <defs
     id="defs4" />
  <sodipodi:namedview
     id="base"
     pagecolor="#ffffff"
     bordercolor="#666666"
     borderopacity="1.0"
     inkscape:pageopacity="0.0"
     inkscape:pageshadow="2"
     inkscape:zoom="0.98994949"
     inkscape:cx="38.646387"
     inkscape:cy="241.97079"
     inkscape:document-units="px"
     inkscape:current-layer="layer1"
     showgrid="false"
     inkscape:window-width="708"
     inkscape:window-height="748"
     inkscape:window-x="710"
     inkscape:window-y="239"
     inkscape:window-maximized="0"
     fit-margin-top="0"
     fit-margin-left="0"
     fit-margin-right="0"
     fit-margin-bottom="0" />
  <metadata
     id="metadata7">
    <rdf:RDF>
      <cc:Work
         rdf:about="">
        <dc:format>image/svg+xml</dc:format>
        <dc:type
           rdf:resource="http://purl.org/dc/dcmitype/StillImage" />
        <dc:title></dc:title>
      </cc:Work>
    </rdf:RDF>
  </metadata>
  <g
     inkscape:label="Layer 1"
     inkscape:groupmode="layer"
     id="layer1"
     transform="translate(-278.62008,-276.48379)">
    <g
       transform="scale(-1,1)"
       style="font-size:97.31159972999999800px;font-style:normal;font-variant:normal;font-weight:normal;font-stretch:normal;line-height:125%;letter-spacing:0px;word-spacing:0px;fill:#000000;fill-opacity:1;stroke:#000000;stroke-width:2.86740971000000000;stroke-linecap:butt;stroke-opacity:1;font-family:cmex10;-inkscape-font-specification:cmex10"
       id="text2985">
      <path
         d="m -329.9925,569.75725 c -0.57019,-2.8e-4 -0.85528,-0.28538 -0.85528,-0.85527 0,-0.28538 0.0634,-0.49128 0.19006,-0.6177 8.04594,-9.50337 14.79312,-20.00427 20.24158,-31.50273 5.4484,-11.49898 9.6456,-23.43326 12.59159,-35.80288 2.94591,-12.37006 5.00491,-24.84284 6.177,-37.4184 1.17201,-12.57592 1.75803,-25.80103 1.75807,-39.67538 -4e-5,-13.93799 -0.58606,-27.21062 -1.75807,-39.81793 -1.17209,-12.60752 -3.23109,-25.07239 -6.177,-37.39465 -2.94599,-12.32238 -7.14319,-24.25666 -12.59159,-35.80287 -5.44846,-11.54627 -12.19564,-22.03925 -20.24158,-31.47898 -0.12671,-0.1267 -0.19006,-0.31676 -0.19006,-0.57018 0,-0.60186 0.28509,-0.90279 0.85528,-0.90279 l 2.80341,0 c 0.0317,0 0.23757,0.095 0.6177,0.28509 8.90121,9.28134 16.40864,19.64761 22.52231,31.09885 6.11362,11.45118 10.91267,23.46465 14.39718,36.04045 3.48442,12.57567 5.95522,25.3098 7.41241,38.20241 1.45708,12.8924 2.18565,26.33925 2.18571,40.3406 -6e-5,13.9377 -0.72863,27.34496 -2.18571,40.22181 -1.45719,12.87648 -3.93591,25.61061 -7.43617,38.2024 -3.50034,12.59136 -8.29148,24.59691 -14.37342,36.0167 -6.08199,11.41927 -13.58942,21.80138 -22.52231,31.14636 -0.38013,0.18978 -0.58603,0.28481 -0.6177,0.28509 z"
         id="path3774"
         inkscape:connector-curvature="0"
         style="fill:#000000;stroke:#000000;stroke-opacity:1" />
    </g>
  </g>
</svg>
