<?xml version="1.0" encoding="UTF-8" standalone="no"?>
<!-- Created with Inkscape (http://www.inkscape.org/) -->

<svg
   xmlns:dc="http://purl.org/dc/elements/1.1/"
   xmlns:cc="http://creativecommons.org/ns#"
   xmlns:rdf="http://www.w3.org/1999/02/22-rdf-syntax-ns#"
   xmlns:svg="http://www.w3.org/2000/svg"
   xmlns="http://www.w3.org/2000/svg"
   xmlns:sodipodi="http://sodipodi.sourceforge.net/DTD/sodipodi-0.dtd"
   xmlns:inkscape="http://www.inkscape.org/namespaces/inkscape"
   width="52.797009"
   height="55.995998"
   id="svg2"
   version="1.1"
   inkscape:version="0.48.4 r9939"
   sodipodi:docname="sumOperator.svg"
   inkscape:export-filename="C:\Users\camdenre\Documents\EquationEditorRefactored\src\Images\sumOperatorHighlight.png"
   inkscape:export-xdpi="851.84656"
   inkscape:export-ydpi="851.84656">
  <defs
     id="defs4" />
  <sodipodi:namedview
     id="base"
     pagecolor="#ffffff"
     bordercolor="#666666"
     borderopacity="1.0"
     inkscape:pageopacity="0.0"
     inkscape:pageshadow="2"
     inkscape:zoom="3.959798"
     inkscape:cx="55.039829"
     inkscape:cy="11.409129"
     inkscape:document-units="px"
     inkscape:current-layer="layer1"
     showgrid="false"
     fit-margin-top="0"
     fit-margin-left="0"
     fit-margin-right="0"
     fit-margin-bottom="0"
     inkscape:window-width="829"
     inkscape:window-height="679"
     inkscape:window-x="250"
     inkscape:window-y="250"
     inkscape:window-maximized="0" />
  <metadata
     id="metadata7">
    <rdf:RDF>
      <cc:Work
         rdf:about="">
        <dc:format>image/svg+xml</dc:format>
        <dc:type
           rdf:resource="http://purl.org/dc/dcmitype/StillImage" />
        <dc:title></dc:title>
      </cc:Work>
    </rdf:RDF>
  </metadata>
  <g
     inkscape:label="Layer 1"
     inkscape:groupmode="layer"
     id="layer1"
     transform="translate(-50.817524,-457.79474)">
    <text
       xml:space="preserve"
       style="font-size:40px;font-style:normal;font-variant:normal;font-weight:normal;font-stretch:normal;line-height:125%;letter-spacing:0px;word-spacing:0px;fill:#000000;fill-opacity:1;stroke:none;font-family:cmex10;-inkscape-font-specification:cmex10"
       x="320"
       y="449.50504"
       id="text2985"
       sodipodi:linespacing="125%"><tspan
         sodipodi:role="line"
         id="tspan2987"
         x="320"
         y="449.50504" /></text>
    <g
       style="font-size:55.99599838000000300px;font-style:normal;font-variant:normal;font-weight:normal;font-stretch:normal;line-height:125%;letter-spacing:0px;word-spacing:0px;fill:#000000;fill-opacity:1;stroke:none;font-family:cmex10;-inkscape-font-specification:cmex10"
       id="text2989">
      <path
         d="m 51.36436,513.79074 c -0.36456,-6e-5 -0.546839,-0.20968 -0.546836,-0.62886 -3e-6,-0.14588 0.05468,-0.27348 0.164051,-0.38279 L 71.351213,487.87071 50.981575,459.81803 c -0.10937,-0.10937 -0.164054,-0.20962 -0.164051,-0.30076 l 0,-1.23038 c -3e-6,-0.12759 0.05924,-0.24152 0.177722,-0.34177 0.118478,-0.10025 0.241516,-0.15038 0.369114,-0.15038 l 47.438016,0 4.812154,13.09672 -1.61316,0 c -0.92968,-2.55191 -2.337779,-4.57976 -4.224311,-6.08355 -1.886632,-1.5038 -4.042075,-2.59748 -6.466335,-3.28102 -2.424347,-0.68354 -4.784853,-1.10278 -7.081525,-1.25772 -2.296745,-0.15494 -5.094719,-0.23241 -8.393931,-0.2324 l -18.701789,0 18.483054,25.37318 c 0.10934,0.10934 0.164023,0.23694 0.164051,0.38279 -2.8e-5,0.14579 -0.05471,0.27339 -0.164051,0.38278 l -19.986853,24.41623 20.533689,0 c 3.244528,-6e-5 6.006047,-0.0775 8.284565,-0.23241 2.278443,-0.15499 4.620722,-0.56511 7.026841,-1.23038 2.406032,-0.66537 4.543247,-1.75904 6.411651,-3.28101 1.868304,-1.52208 3.239954,-3.55904 4.114944,-6.1109 l 1.61316,0 -4.812154,14.05369 z"
         style="fill:#000000"
         id="path2998" />
    </g>
  </g>
</svg>
